# xmcd
#
# Track frame offsets:
#	150
#	15103
#	30184
#	42624
#	56310
#	72678
#	94315
#	109253
#	125000
#	139930
#	156024
#	168980
#	183619
#	194506
#	207644
#	220374
#	234246
#	252866
#	268296
#	284610
#	301537
#	313211
#
# Disc length: 4369 seconds
#
# Revision: 1
# Processed by: cddbd v1.5.1PL2 Copyright (c) Steve Scherf et al.
# Submitted via: audiograbber 1.83.01
#
DISCID=4d110f16
DTITLE=Various Artist - Sertanejo Raizes By Miro 3
DYEAR=2006
DGENRE=Country
TTITLE0=Zeze di Camargo and Luciano - No Dia em Que Sai de Casa
TTITLE1=Chico Rei and Parana - Canarinho Prisioneiro
TTITLE2=Chitaozinho and Xororo - Ela fez minha cabeça
TTITLE3=Gilberto and Gilmar - Capa de revista
TTITLE4=Joao Mineiro and Marciano - Seu Amor Ainda e Tudo
TTITLE5=Milionario and Jose Rico - Lembrança
TTITLE6=Chrystian and Ralf - A Vaca Ja Foi Pro Brejo
TTITLE7=Daniel (part_ esp_ Jose Camillo) - Meu Reino Encantado
TTITLE8=Trio Parada Dura - Castelo de Amor
TTITLE9=Gian and Giovane - Roupa De Lua De Mel
TTITLE10=Gilberto and Gilmar - So Mais Uma Vez
TTITLE11=Milionario and Jose Rico - Cabecinha no Ombro
TTITLE12=Joao Mineiro and Marciano - Eu volto amanhã
TTITLE13=Chitaozinho and Xororo - Fio de Cabelo
TTITLE14=Joao Mineiro and Marciano - Telefone Mais
TTITLE15=Leandro and Leonardo - Não aprendi dizer adeus
TTITLE16=Milionario and Jose Rico - Levando a Vida
TTITLE17=Chrystian and Ralf - Hino de Reis
TTITLE18=Rio Negro and Solimoes - to por ai
TTITLE19=Sergio and Serginho - Toneladas de Paixão
TTITLE20=Teodoro and Sampaio - Espora do Amor
TTITLE21=Zeze di Camargo and Luciano - Coração de Vidro
EXTD=
EXTT0=
EXTT1=
EXTT2=
EXTT3=
EXTT4=
EXTT5=
EXTT6=
EXTT7=
EXTT8=
EXTT9=
EXTT10=
EXTT11=
EXTT12=
EXTT13=
EXTT14=
EXTT15=
EXTT16=
EXTT17=
EXTT18=
EXTT19=
EXTT20=
EXTT21=
PLAYORDER=
